<?xml version="1.0" standalone="no"?>
<!DOCTYPE svg PUBLIC "-//W3C//DTD SVG 20010904//EN"
 "http://www.w3.org/TR/2001/REC-SVG-20010904/DTD/svg10.dtd">
<svg version="1.0" xmlns="http://www.w3.org/2000/svg"
 width="800.000000pt" height="800.000000pt" viewBox="0 0 800.000000 800.000000"
 preserveAspectRatio="xMidYMid meet">
<metadata>
Created by potrace 1.14, written by Peter Selinger 2001-2017
</metadata>
<g transform="translate(0.000000,800.000000) scale(0.100000,-0.100000)"
fill="#000000" stroke="none">
<path d="M5375 6215 c-34 -33 -34 -86 0 -113 24 -19 24 -20 5 -37 -24 -22 -25
-50 -5 -89 8 -15 15 -30 15 -32 0 -2 -22 -4 -48 -4 -38 0 -59 -7 -95 -31 -50
-33 -64 -69 -27 -69 24 0 38 -44 20 -65 -16 -19 -6 -45 17 -45 14 0 26 -22 49
-89 18 -53 27 -94 22 -99 -12 -12 8 -62 24 -63 45 -3 -106 -30 -191 -34 -111
-6 -123 -9 -115 -29 4 -10 -115 -14 -633 -19 -1029 -11 -1111 -10 -1109 10 1
16 -13 17 -171 14 -190 -3 -174 -9 -177 59 0 16 -8 35 -17 42 -18 14 -119 328
-119 368 0 13 7 28 17 35 21 15 11 45 -18 52 -18 5 -16 8 15 18 20 7 61 28 92
46 49 30 53 35 35 43 -16 7 -34 0 -81 -28 -34 -20 -68 -36 -75 -36 -8 0 -30
11 -49 24 l-35 24 32 7 c111 23 201 34 208 24 4 -6 17 -8 30 -4 19 5 21 4 9
-4 -8 -6 -10 -11 -4 -11 5 0 15 5 21 11 15 15 156 12 281 -5 50 -8 52 -7 52
16 0 14 -10 34 -22 45 -86 78 -231 88 -698 48 -155 -13 -206 -14 -317 -4 -149
14 -178 8 -189 -38 -4 -15 -1 -44 7 -67 14 -40 15 -41 64 -42 28 0 60 -5 72
-12 27 -15 88 -16 113 -2 16 9 27 4 60 -26 22 -20 38 -39 35 -42 -3 -3 -23 12
-45 33 -22 22 -40 36 -40 33 0 -17 75 -78 89 -73 8 3 18 0 23 -7 8 -10 11 -10
15 -1 7 19 36 -14 29 -33 -4 -10 3 -16 24 -21 17 -3 30 -9 30 -14 0 -5 20 -14
45 -20 25 -6 49 -19 54 -28 10 -19 101 -317 101 -330 0 -5 -9 -13 -21 -16 -16
-5 -19 -14 -17 -38 3 -30 6 -32 36 -29 50 5 40 -21 -18 -41 -91 -32 -194 -133
-221 -217 -7 -19 -23 -60 -37 -90 -13 -30 -31 -71 -40 -90 -21 -50 -33 -64
-43 -49 -4 7 -15 9 -24 5 -13 -5 -16 -14 -12 -39 4 -23 -1 -42 -19 -68 l-25
-36 -117 49 c-353 150 -763 167 -1132 47 -110 -35 -251 -100 -333 -152 -32
-21 -60 -37 -62 -37 -11 0 -141 -104 -200 -159 -200 -187 -341 -408 -429 -671
-96 -288 -109 -583 -36 -878 112 -457 407 -833 820 -1045 58 -30 134 -64 170
-77 36 -12 74 -26 85 -31 11 -5 67 -21 125 -35 92 -23 132 -27 315 -31 228 -6
317 4 486 51 364 102 691 337 897 646 31 47 57 86 58 88 0 1 23 5 50 8 27 3
65 7 84 9 19 3 55 7 80 10 25 2 68 7 95 10 28 3 66 8 85 10 19 2 37 5 40 6 3
1 16 3 30 5 195 20 355 58 368 87 2 4 9 7 16 7 25 0 109 97 138 159 l30 64
116 -6 c65 -4 167 -10 228 -13 105 -7 112 -6 133 15 30 30 28 84 -4 109 -21
17 -48 20 -207 26 -213 8 -268 14 -268 30 0 27 -22 87 -45 120 -13 20 -22 36
-18 36 3 0 1 6 -5 13 -11 13 34 69 337 416 69 80 189 220 266 312 77 91 208
245 290 341 83 96 188 219 234 274 249 293 388 444 408 444 6 0 9 -9 6 -19 -3
-12 3 -26 16 -37 12 -10 21 -23 21 -29 0 -6 16 -48 35 -95 20 -46 34 -89 31
-95 -2 -7 -26 -25 -53 -40 -84 -48 -235 -166 -310 -241 -199 -202 -339 -448
-412 -724 -40 -152 -51 -243 -51 -415 0 -425 169 -826 474 -1129 113 -112 195
-175 334 -253 143 -80 253 -126 392 -162 154 -39 246 -51 405 -51 306 0 595
77 831 220 36 22 68 40 71 40 14 0 190 147 263 220 146 146 288 371 360 568
182 498 109 1047 -196 1483 -113 161 -304 336 -489 448 -365 221 -841 286
-1260 170 -38 -10 -73 -19 -76 -19 -4 0 -16 27 -27 59 -18 52 -18 62 -6 80 12
17 12 21 0 28 -13 7 -13 15 0 63 22 84 16 93 -9 15 -15 -46 -29 -71 -40 -73
-24 -5 -33 -49 -13 -70 19 -22 48 -102 42 -117 -4 -11 -85 -40 -91 -33 -10 10
-52 193 -48 205 3 8 -3 27 -14 41 -43 58 -40 65 43 144 42 40 81 72 86 70 5
-1 7 2 3 8 -3 5 12 33 33 62 21 29 48 71 60 93 27 51 27 46 -3 -87 -24 -105
-25 -133 -6 -112 15 17 62 276 68 378 5 81 11 109 29 142 57 97 15 154 -112
154 -43 0 -56 4 -68 22 -9 12 -16 32 -16 43 0 12 -11 37 -25 56 -14 19 -24 42
-21 52 9 37 -64 90 -119 85 -25 -2 -39 3 -49 17 -12 16 -16 17 -30 6 -13 -11
-24 -11 -65 3 -66 21 -78 20 -106 -9z m-3148 -107 c-3 -7 -5 -2 -5 12 0 14 2
19 5 13 2 -7 2 -19 0 -25z m43 18 c0 -8 -4 -17 -9 -21 -6 -3 -9 4 -8 15 1 23
17 28 17 6z m520 -6 c0 -5 -2 -10 -4 -10 -3 0 -8 5 -11 10 -3 6 -1 10 4 10 6
0 11 -4 11 -10z m-63 -22 c-3 -8 -6 -5 -6 6 -1 11 2 17 5 13 3 -3 4 -12 1 -19z
m228 -27 c-16 -15 -131 -71 -146 -71 -8 0 20 18 61 40 73 38 104 50 85 31z
m2528 -11 c20 -11 37 -17 37 -13 0 10 20 -19 20 -29 0 -7 -53 -38 -64 -38 -8
0 -27 38 -36 71 -10 34 -6 35 43 9z m-2773 -15 c0 -17 -61 -31 -87 -20 -14 6
-10 11 22 21 53 17 65 17 65 -1z m-152 -41 c5 -32 -45 -39 -75 -11 -34 31 -28
38 25 35 39 -2 48 -7 50 -24z m202 -54 c-24 -15 -37 -11 -16 5 11 8 22 12 25
9 3 -3 -1 -9 -9 -14z m3195 -42 c33 -15 42 -51 22 -94 -20 -42 -33 -43 -40 -4
-4 16 -25 48 -47 70 l-40 40 40 0 c21 0 51 -5 65 -12z m-77 -41 c11 -12 28
-40 38 -62 l16 -39 -41 37 c-23 20 -46 37 -51 37 -6 0 -10 11 -10 25 0 31 20
32 48 2z m-278 -53 c32 -21 43 -24 54 -15 10 8 16 9 21 1 4 -6 22 -1 50 15 28
15 47 20 51 14 3 -6 13 -8 21 -5 21 9 74 -20 102 -56 l24 -30 -34 -29 c-74
-65 -185 -129 -289 -168 -72 -27 -77 -27 -77 10 0 18 -7 37 -17 44 -16 12 -82
182 -74 191 6 5 112 53 121 53 4 1 25 -11 47 -25z m330 -169 c0 -111 -83 -258
-216 -385 l-77 -73 -13 24 c-7 13 -13 32 -14 42 0 9 -6 17 -13 17 -9 0 -12 10
-9 31 4 24 0 31 -16 36 -17 4 -20 11 -15 34 3 16 -2 46 -11 70 -10 23 -13 45
-9 49 4 3 40 19 80 34 94 36 170 77 241 132 31 24 60 43 65 44 4 0 7 -25 7
-55z m-3130 -194 c0 -4 -7 -8 -15 -8 -16 0 -20 9 -9 20 8 8 24 -1 24 -12z
m2570 -21 c0 -19 -7 -20 -104 -20 -57 0 -112 -3 -122 -7 -12 -4 -15 -3 -10 5
4 7 24 12 44 13 20 0 66 6 102 14 88 18 90 18 90 -5z m-2187 -37 c-34 -2 -93
-2 -130 0 -37 2 -9 3 62 3 72 0 102 -1 68 -3z m-330 -68 c9 -39 6 -45 -79
-178 -70 -109 -93 -137 -111 -137 -28 0 -38 -16 -23 -36 10 -12 7 -23 -17 -62
-16 -26 -35 -47 -43 -47 -8 0 -17 -13 -20 -30 -4 -16 -20 -51 -37 -77 l-30
-47 -41 25 c-23 14 -42 28 -42 31 0 14 45 80 69 100 22 20 24 26 14 42 -10 17
-4 39 42 145 59 138 95 196 146 240 41 34 128 77 149 73 9 -1 19 -19 23 -42z
m1777 15 c0 -5 -2 -10 -4 -10 -3 0 -8 5 -11 10 -3 6 -1 10 4 10 6 0 11 -4 11
-10z m270 6 c0 -3 -4 -8 -10 -11 -5 -3 -10 -1 -10 4 0 6 5 11 10 11 6 0 10 -2
10 -4z m90 -12 c0 -2 -7 -4 -15 -4 -8 0 -15 4 -15 10 0 5 7 7 15 4 8 -4 15 -8
15 -10z m-265 -12 c-3 -3 -11 0 -18 7 -9 10 -8 11 6 5 10 -3 15 -9 12 -12z
m693 -54 c7 -7 12 -17 12 -23 0 -7 -52 -72 -116 -146 -64 -74 -157 -182 -208
-240 -50 -58 -219 -255 -375 -438 -227 -265 -288 -331 -305 -329 -17 2 -21 -2
-21 -24 0 -29 -136 -200 -158 -197 -30 4 -37 -2 -32 -24 4 -14 -1 -30 -12 -42
-10 -11 -98 -113 -196 -227 -98 -115 -180 -208 -183 -208 -2 0 -21 6 -41 14
-54 20 -92 28 -142 30 l-44 2 -66 204 c-47 144 -62 205 -53 208 19 6 14 26 -9
37 -27 12 -96 222 -79 239 16 16 12 36 -8 36 -15 0 -33 48 -102 268 -210 667
-257 827 -248 837 6 6 357 14 971 21 1439 16 1401 16 1415 2z m-2445 -320 c42
-128 135 -422 207 -653 72 -231 163 -518 201 -637 64 -199 75 -249 48 -233 -8
5 -97 15 -149 16 -53 1 -57 6 -65 76 -18 182 -81 407 -156 555 -107 213 -287
433 -457 561 -15 11 -31 24 -35 27 -5 4 26 61 69 126 74 115 130 202 164 254
8 14 31 51 50 83 19 31 37 57 41 57 3 0 40 -105 82 -232z m2286 -102 c-12 -13
-34 8 -25 23 5 8 11 7 21 -2 8 -7 10 -16 4 -21z m-3474 -56 c27 -6 -2 -7 -90
-4 -71 2 -155 0 -185 -5 l-55 -9 65 -2 65 -3 -86 -7 c-185 -17 -341 -61 -509
-143 -133 -66 -128 -64 -110 -41 12 17 12 17 0 6 -8 -7 -15 -17 -15 -21 0 -14
-104 -81 -118 -76 -7 3 -28 -9 -47 -25 -19 -16 -30 -30 -25 -30 6 0 23 12 38
26 16 14 30 24 32 22 3 -2 -23 -28 -56 -57 -33 -29 -62 -51 -65 -48 -3 2 7 14
22 26 15 11 22 21 17 21 -22 0 -232 -234 -221 -246 3 -2 18 12 33 33 52 69
137 164 143 158 3 -3 -17 -29 -45 -58 -165 -171 -288 -411 -343 -675 -10 -48
-19 -76 -19 -62 -2 65 70 303 125 413 19 37 32 67 29 67 -11 0 -76 -144 -108
-241 -52 -158 -70 -270 -71 -446 -1 -84 -4 -153 -7 -153 -14 0 -20 170 -10
270 19 202 60 346 148 526 194 398 598 699 1043 777 94 17 361 21 425 7z
m4915 -24 c442 -103 791 -378 993 -782 42 -83 95 -247 116 -356 22 -118 36
-271 26 -287 -10 -17 -35 13 -35 41 0 19 2 20 11 8 9 -12 10 -12 5 3 -3 10 -7
46 -8 80 l-1 62 -7 -65 -7 -65 -1 52 c-6 173 -89 442 -187 602 -37 62 -42 77
-23 65 7 -4 8 -3 4 5 -4 6 -11 9 -16 6 -5 -3 -18 8 -29 24 -24 33 -27 45 -8
35 7 -4 9 -3 4 2 -5 5 -14 9 -19 9 -6 0 -13 6 -16 14 -3 9 0 11 9 6 8 -5 11
-5 7 -1 -3 4 -10 7 -15 7 -11 0 -83 70 -83 82 0 4 6 5 13 1 7 -4 9 -3 4 2 -5
5 -14 9 -20 9 -7 1 -11 6 -10 13 2 7 0 11 -5 10 -13 -5 -54 30 -48 41 4 6 1 9
-6 6 -14 -6 -77 52 -77 70 0 5 -5 11 -13 13 -9 2 -8 0 2 -7 8 -6 11 -11 5 -11
-16 1 -50 30 -50 43 -1 7 -6 11 -13 10 -6 -2 -35 12 -64 31 -149 95 -337 167
-523 200 -44 8 -66 15 -50 15 17 0 70 -8 119 -19 49 -11 91 -18 93 -16 9 8
-187 46 -285 55 -98 9 -314 0 -378 -15 -16 -4 -26 -4 -22 0 3 4 44 14 90 21
130 22 386 12 518 -19z m-1628 -12 c-4 -20 1 -31 19 -45 20 -15 22 -20 11 -31
-11 -11 -16 -10 -27 6 -12 16 -18 17 -46 7 -42 -15 -56 -14 -40 2 12 12 16 13
45 16 8 0 17 17 20 36 4 19 11 35 15 35 5 0 6 -12 3 -26z m-3334 9 c-15 -2
-42 -2 -60 0 -18 2 -6 4 27 4 33 0 48 -2 33 -4z m4724 0 c-40 -2 -103 -2 -140
0 -37 2 -4 3 73 3 77 0 107 -2 67 -3z m-4892 -84 c0 -31 4 -48 10 -44 6 3 10
26 10 51 l0 44 60 0 c33 0 60 -3 60 -7 0 -5 30 -8 68 -9 65 0 166 -17 188 -32
8 -5 3 -47 -18 -147 -16 -76 -27 -146 -26 -155 2 -8 16 51 32 131 15 80 31
151 34 157 7 10 185 -49 207 -69 6 -6 1 -25 -14 -52 -12 -23 -23 -49 -25 -57
-3 -22 -104 -201 -207 -367 -22 -34 -39 -65 -39 -67 0 -8 -63 -106 -66 -103
-2 1 15 90 36 196 22 106 40 198 40 203 0 33 -13 -19 -54 -220 -25 -123 -51
-234 -58 -247 -7 -12 -23 -41 -35 -63 -24 -43 -46 -64 -42 -41 1 8 1 215 0
462 -1 329 -4 447 -12 447 -9 0 -10 -56 -5 -212 9 -295 10 -748 2 -756 -4 -3
-11 0 -16 8 -7 12 -12 12 -21 3 -10 -10 -17 -9 -31 4 -17 15 -20 15 -28 3 -8
-12 -13 -13 -29 -3 -14 9 -22 9 -27 2 -3 -6 -17 -8 -30 -5 -15 4 -24 2 -24 -5
0 -7 -3 -10 -6 -7 -8 9 -10 44 -29 518 -16 388 -20 460 -28 449 -2 -2 3 -125
10 -274 6 -148 15 -362 18 -474 3 -112 8 -207 10 -211 3 -4 -5 -10 -16 -13
-16 -4 -24 2 -35 29 -8 19 -16 51 -17 72 -2 20 -8 46 -14 57 -6 11 -27 85 -48
165 -20 80 -46 179 -57 220 -11 41 -35 135 -54 208 -19 72 -39 143 -43 155 -5
13 -6 29 -2 35 10 16 146 50 229 57 37 4 69 8 71 11 2 2 19 4 38 4 l33 0 0
-51z m4856 -1 l8 -53 4 45 c2 25 7 48 11 53 16 16 353 -47 370 -70 3 -4 17 -9
30 -11 14 -1 67 -22 118 -47 85 -40 93 -46 84 -64 -23 -41 -225 -338 -313
-458 -21 -29 -38 -55 -38 -58 0 -4 -12 -22 -27 -41 -16 -22 -29 -31 -33 -24
-4 7 -10 -2 -14 -20 -6 -30 -69 -134 -117 -190 l-21 -25 6 80 c3 44 8 123 10
175 4 85 4 88 -4 30 -5 -36 -11 -116 -14 -178 -6 -119 -15 -146 -67 -213 -16
-20 -29 -42 -29 -48 0 -26 -17 -6 -52 59 l-38 69 0 502 c0 276 -2 500 -5 498
-2 -3 -5 -250 -5 -549 -1 -299 -4 -539 -8 -534 -4 5 -18 21 -31 36 -15 17 -30
57 -42 110 -10 46 -16 63 -13 38 3 -25 8 -56 11 -70 4 -20 -6 -13 -52 35 -85
91 -161 254 -236 509 -15 54 -26 102 -24 106 3 4 -7 33 -21 64 -31 69 -27 86
23 87 51 1 107 22 111 42 2 8 -3 35 -11 59 -13 38 -13 44 0 52 10 5 18 4 23
-4 5 -9 9 -8 13 2 9 25 172 52 333 57 l51 1 9 -52z m-5237 -50 c10 -32 57
-207 142 -537 22 -84 39 -155 37 -157 -2 -2 -36 45 -74 104 -271 409 -327 492
-331 488 -3 -2 92 -150 210 -328 180 -271 218 -334 232 -387 9 -35 15 -65 13
-66 -2 -2 -73 65 -158 148 -85 84 -240 234 -344 334 l-188 181 73 54 c41 30
106 72 144 93 63 35 210 103 227 104 3 1 11 -14 17 -31z m3864 -5 c-7 -3 -13
-10 -13 -17 0 -7 -11 -22 -23 -35 -21 -19 -25 -20 -37 -6 -7 8 -18 15 -26 15
-18 0 -27 17 -16 35 7 14 11 13 34 -5 33 -26 36 -25 60 6 11 14 23 22 27 18 3
-4 0 -9 -6 -11z m797 -17 c0 -16 -18 -31 -27 -22 -8 8 5 36 17 36 5 0 10 -6
10 -14z m-933 -58 c-2 -7 -8 -23 -12 -36 -7 -23 -7 -23 24 -7 20 10 31 11 31
5 0 -7 -18 -19 -40 -28 -24 -10 -38 -22 -35 -29 2 -7 2 -19 -1 -27 -4 -10 -15
-5 -42 20 l-37 33 40 41 c37 38 83 55 72 28z m-2564 -54 c-10 -27 -43 -9 -40
23 1 19 3 20 23 6 13 -8 20 -21 17 -29z m3376 -87 c23 -64 57 -153 75 -197 19
-44 30 -78 25 -74 -5 3 -53 58 -108 122 -54 64 -114 134 -134 154 -39 41 -41
36 38 91 28 19 53 32 57 28 3 -3 25 -59 47 -124z m1446 70 c70 -48 299 -272
291 -286 -3 -5 1 -11 9 -15 34 -13 144 -209 196 -347 44 -121 49 -114 -97
-140 -69 -13 -121 -25 -115 -27 6 -2 63 6 126 19 66 12 120 18 125 13 4 -5 15
-49 24 -99 17 -93 23 -379 8 -402 -4 -6 -21 -13 -37 -16 l-30 -4 33 -2 c38 -1
38 -1 12 -111 -38 -160 -138 -388 -163 -374 -51 27 -614 410 -607 412 5 2 95
-20 200 -48 105 -29 194 -50 196 -47 2 2 -26 12 -63 22 -38 9 -81 21 -98 26
-16 5 -90 25 -163 44 -116 31 -143 42 -214 90 -45 30 -84 52 -87 50 -2 -3 -2
-6 0 -8 2 -2 23 -15 46 -30 29 -18 41 -32 37 -42 -4 -10 0 -15 12 -15 16 0 17
2 4 10 -10 7 -11 10 -2 10 7 0 15 -7 18 -15 4 -8 14 -15 24 -15 10 0 23 -6 29
-14 7 -8 22 -12 34 -9 14 3 18 1 10 -4 -7 -5 99 -82 308 -222 175 -118 319
-216 319 -218 0 -9 -53 -87 -96 -139 -26 -33 -48 -61 -50 -63 -2 -2 -161 155
-355 348 -193 193 -350 354 -347 356 3 3 19 0 37 -6 18 -6 34 -9 37 -7 2 3
-22 13 -55 23 -40 12 -70 29 -92 53 l-34 35 40 -7 c22 -3 94 -8 160 -10 l120
-4 -120 11 c-115 12 -122 14 -183 53 l-64 42 85 46 84 46 509 2 509 3 -499 2
-500 3 45 28 c108 69 142 81 314 113 94 17 172 33 175 36 6 6 -52 -3 -183 -28
-54 -10 -106 -19 -115 -19 -15 0 123 82 486 287 122 70 158 93 114 75 -20 -8
-362 -203 -537 -305 -107 -63 -130 -73 -215 -88 -52 -10 -101 -18 -109 -19
-20 0 10 31 89 94 36 28 76 61 90 73 107 91 336 284 426 357 133 109 141 116
128 116 -13 0 -43 -24 -246 -197 -85 -72 -181 -153 -214 -179 -32 -26 -64 -53
-70 -58 -7 -6 -31 -27 -55 -46 -24 -19 -78 -65 -120 -103 -72 -63 -82 -68
-151 -81 -40 -8 -75 -12 -77 -10 -4 4 27 122 39 143 4 7 171 177 371 377 199
200 359 364 353 364 -5 0 -168 -159 -362 -353 -194 -194 -352 -349 -352 -345
0 5 9 41 20 80 11 39 18 74 16 76 -3 2 -10 -16 -16 -39 -6 -24 -20 -73 -30
-109 -10 -36 -26 -92 -35 -125 -10 -33 -19 -66 -21 -72 -2 -7 -10 -13 -19 -13
-11 0 -15 11 -15 38 0 29 7 45 30 67 17 16 30 34 30 39 0 6 -12 -2 -25 -17
-27 -31 -28 -30 -25 28 1 30 16 61 56 122 30 46 60 86 67 90 7 5 21 26 32 47
11 22 29 51 40 65 11 14 65 91 120 171 292 427 278 409 300 397 11 -5 47 -28
80 -50z m-4961 -38 c14 -11 30 -18 34 -15 5 3 17 0 26 -7 18 -13 13 -27 -62
-144 -15 -23 -63 -100 -107 -170 -44 -70 -90 -139 -103 -153 -13 -14 -62 -67
-109 -118 -47 -51 -87 -91 -89 -89 -2 2 3 38 11 80 11 59 26 94 63 154 27 43
59 96 71 118 11 22 33 61 48 86 135 225 169 279 179 279 6 0 23 -9 38 -21z
m206 -30 c-38 -47 -62 -64 -37 -26 9 15 24 38 33 52 9 14 20 22 25 19 5 -3 -4
-23 -21 -45z m2399 0 c8 -24 7 -33 -12 -55 l-23 -26 -37 18 c-29 14 -34 20
-25 31 9 11 15 11 33 -1 13 -8 25 -12 29 -9 10 10 7 51 -4 58 -6 4 -8 10 -5
15 10 16 33 -1 44 -31z m882 -144 c130 -148 160 -188 194 -262 56 -120 153
-279 239 -391 39 -52 76 -101 81 -110 6 -10 15 -20 20 -24 6 -4 -11 -8 -36 -8
-34 0 -51 5 -65 21 -19 21 -19 22 1 16 56 -17 72 -14 20 3 -58 19 -72 31 -428
388 -282 282 -366 372 -361 385 6 17 163 157 175 157 4 0 76 -79 160 -175z
m-3137 82 l87 -82 -335 -335 c-291 -291 -340 -335 -368 -338 -18 -1 -39 2 -47
7 -18 12 -13 21 155 279 76 118 166 255 199 306 61 95 191 246 211 246 6 0 50
-37 98 -83z m-1693 -97 c130 -123 222 -211 467 -445 92 -88 115 -118 85 -113
-10 2 -18 -3 -18 -12 0 -8 -10 -16 -21 -18 -12 -2 -24 -12 -27 -23 -4 -13 -12
-19 -24 -17 -13 2 -17 -2 -15 -15 2 -12 -4 -21 -18 -24 -15 -4 -19 -11 -15
-24 4 -11 4 -19 0 -19 -3 0 -106 91 -227 203 -197 179 -313 284 -455 410 -56
50 -55 42 2 -15 25 -25 45 -43 45 -41 0 3 26 -20 58 -49 107 -102 347 -323
440 -407 51 -46 91 -86 88 -88 -2 -2 -32 1 -67 8 -61 12 -161 63 -306 156 -29
18 -54 33 -57 33 -3 0 -76 42 -163 93 -87 51 -177 104 -200 117 -24 13 -43 27
-43 32 0 18 106 177 166 249 71 85 141 152 154 147 5 -2 73 -64 151 -138z
m4422 43 c-81 -99 -171 -238 -160 -249 2 -2 21 23 41 56 20 32 42 62 48 66 6
4 -3 -13 -20 -38 -18 -26 -50 -79 -72 -120 -41 -75 -56 -88 -19 -17 11 23 18
43 16 46 -17 16 -147 -320 -147 -378 0 -10 -4 -20 -9 -23 -12 -8 13 104 45
199 50 150 161 344 259 453 59 65 70 68 18 5z m-624 8 c-7 -11 -10 -24 -6 -28
5 -4 11 -3 15 3 11 17 71 46 82 39 14 -9 -45 -115 -64 -115 -13 0 -5 21 16 42
21 21 22 23 4 26 -10 2 -31 -5 -47 -17 -34 -25 -39 -26 -39 -5 0 19 40 87 47
80 2 -2 -1 -13 -8 -25z m691 26 c0 -2 -15 -16 -32 -33 l-33 -29 29 33 c28 30
36 37 36 29z m-2547 -171 c61 -91 109 -181 142 -271 33 -87 55 -165 47 -165
-4 0 -15 28 -25 63 -19 66 -102 262 -122 287 -6 8 -24 36 -38 62 -15 25 -43
68 -63 95 -21 26 -28 40 -16 29 12 -10 46 -55 75 -100z m2487 101 c0 -2 -12
-14 -27 -28 l-28 -24 24 28 c23 25 31 32 31 24z m407 -359 c194 -194 350 -354
349 -356 -12 -11 -161 48 -221 87 -288 192 -622 416 -629 422 -6 5 10 38 40
81 62 91 95 130 103 123 3 -3 164 -164 358 -357z m-2969 244 c54 -79 62 -96
51 -107 -8 -7 -151 -104 -318 -215 -282 -189 -309 -204 -382 -223 -44 -11 -82
-17 -86 -14 -9 10 640 658 656 655 8 -2 44 -45 79 -96z m93 -67 l10 -20 -16
20 c-9 11 -21 29 -26 40 l-10 20 16 -20 c9 -11 21 -29 26 -40z m23 -41 c3 -8
2 -12 -4 -9 -6 3 -10 10 -10 16 0 14 7 11 14 -7z m2387 -20 c31 -23 151 -104
191 -129 65 -40 417 -279 414 -282 -1 -2 -140 35 -307 82 -461 130 -449 126
-449 144 0 25 92 211 105 211 6 0 27 -12 46 -26z m-2386 -76 c66 -142 67 -132
-17 -156 -98 -28 -612 -151 -616 -148 -2 3 578 395 586 396 2 0 23 -42 47 -92z
m-2301 -57 c153 -91 350 -206 421 -246 28 -16 59 -36 70 -46 11 -9 31 -20 44
-24 21 -6 66 -33 116 -68 17 -13 -43 -15 -469 -16 l-488 -2 7 53 c9 74 35 187
44 192 6 4 162 -27 559 -110 95 -20 175 -34 178 -31 3 2 -8 7 -23 10 -15 3
-170 35 -344 71 -409 84 -370 73 -363 105 10 39 55 153 72 179 9 14 21 21 30
17 8 -3 74 -41 146 -84z m2366 14 c0 -5 -5 -3 -10 5 -5 8 -10 20 -10 25 0 6 5
3 10 -5 5 -8 10 -19 10 -25z m2156 -2 c-8 -15 -15 -25 -16 -21 0 12 23 58 27
54 3 -2 -2 -17 -11 -33z m-3120 -30 c-14 -21 -46 -73 -72 -115 -27 -43 -53
-78 -60 -78 -20 0 -25 43 -6 61 9 10 46 51 82 93 70 81 95 99 56 39z m-150
-30 c-2 -10 -10 -44 -16 -75 -12 -63 -18 -69 -38 -37 -11 17 -9 27 18 75 32
55 46 69 36 37z m3396 -64 c62 -17 142 -39 178 -49 139 -38 359 -100 438 -124
68 -20 178 -78 202 -107 10 -12 72 -40 66 -30 -15 23 51 11 74 -14 22 -23 22
-25 4 -25 -11 0 -29 7 -42 15 -20 15 -21 15 -15 0 4 -13 1 -16 -18 -13 -21 3
-24 -2 -27 -29 l-3 -33 59 0 c32 0 61 -3 65 -6 3 -4 -26 -22 -65 -42 l-71 -35
-426 2 c-234 1 -424 0 -421 -2 3 -3 188 -7 413 -8 224 -2 407 -6 407 -9 0 -9
-125 -70 -144 -70 -9 0 -16 -4 -16 -9 0 -5 -8 -7 -18 -4 -10 2 -34 0 -53 -6
-32 -10 -31 -10 14 -5 26 3 47 3 47 0 0 -3 -24 -18 -52 -32 -29 -15 -152 -82
-273 -149 -244 -136 -372 -205 -381 -205 -6 0 -48 94 -70 154 -29 84 -54 73
333 151 190 38 342 70 336 72 -6 2 -160 -26 -342 -62 -183 -37 -338 -65 -345
-62 -16 6 -37 109 -41 197 -2 36 -6 76 -9 90 -5 23 3 150 18 260 6 46 43 198
52 212 7 11 -1 12 126 -23z m-2271 -31 c14 -54 39 -169 39 -185 0 -6 -15 -13
-32 -15 l-33 -4 35 -10 c24 -7 36 -17 38 -32 3 -22 2 -22 -70 -16 -40 4 -84 8
-98 9 -67 4 -160 18 -156 22 3 3 60 9 128 13 102 6 82 7 -117 6 -132 -1 -267
3 -300 7 -33 5 -71 10 -85 11 -120 14 -150 20 -150 26 0 19 57 40 195 74 83
21 238 59 345 86 250 62 246 61 261 8z m3289 -92 c0 -11 3 -16 7 -13 14 14 63
-46 63 -77 l0 -30 -25 34 c-14 19 -25 43 -26 54 0 12 -3 15 -6 8 -3 -7 -20 10
-43 42 -59 85 -66 106 -16 51 25 -27 46 -59 46 -69z m-1203 72 c-3 -8 -6 -5
-6 6 -1 11 2 17 5 13 3 -3 4 -12 1 -19z m-1978 -148 c7 -40 9 -75 7 -78 -8 -7
-13 14 -25 98 -6 41 -13 86 -16 100 -3 14 1 9 9 -11 8 -20 19 -69 25 -109z
m1968 108 c-3 -8 -6 -5 -6 6 -1 11 2 17 5 13 3 -3 4 -12 1 -19z m-3397 4 c0
-14 -11 -21 -26 -15 -21 8 -17 23 6 23 11 0 20 -4 20 -8z m62 -24 c-11 -11
-32 -3 -32 12 0 12 34 18 39 7 2 -5 -1 -13 -7 -19z m51 16 c9 -10 -4 -34 -19
-34 -8 0 -14 6 -14 13 0 22 19 35 33 21z m3274 -36 c-3 -8 -6 -5 -6 6 -1 11 2
17 5 13 3 -3 4 -12 1 -19z m-3236 -1 c-1 -12 -15 -9 -19 4 -3 6 1 10 8 8 6 -3
11 -8 11 -12z m4578 -43 c36 -67 31 -89 -10 -43 -20 22 -29 43 -29 66 0 18 2
33 4 33 3 0 18 -25 35 -56z m126 9 c-9 -65 -57 -116 -71 -79 -5 13 61 126 73
126 3 0 2 -21 -2 -47z m-5018 15 c-2 -7 -11 -12 -19 -10 -9 1 -18 -7 -21 -18
-3 -11 -12 -20 -21 -20 -9 0 -16 -8 -16 -20 0 -11 -4 -20 -10 -20 -21 0 -9 43
19 71 29 29 77 41 68 17z m3514 -53 c-6 -35 -9 -41 -10 -20 -1 30 9 78 15 73
2 -2 -1 -26 -5 -53z m-2845 20 c-11 -8 -31 -15 -45 -14 -22 1 -19 3 14 14 52
17 54 17 31 0z m2871 -17 c-3 -7 -5 -2 -5 12 0 14 2 19 5 13 2 -7 2 -19 0 -25z
m-3267 12 c0 -5 -2 -10 -4 -10 -3 0 -8 5 -11 10 -3 6 -1 10 4 10 6 0 11 -4 11
-10z m1287 -12 c-3 -8 -6 -5 -6 6 -1 11 2 17 5 13 3 -3 4 -12 1 -19z m-1776
-25 c11 3 19 2 19 -1 0 -4 3 -17 6 -29 4 -13 2 -23 -4 -23 -10 0 -112 60 -112
66 0 1 16 -2 36 -8 20 -5 45 -7 55 -5z m644 7 c-3 -5 -11 -10 -16 -10 -6 0 -7
5 -4 10 3 6 11 10 16 10 6 0 7 -4 4 -10z m146 -2 c16 0 29 -1 29 -3 0 -8 -75
-55 -88 -55 -8 0 -12 10 -10 28 3 29 16 44 31 35 6 -3 23 -6 38 -5z m4013 -13
c30 -9 62 -25 71 -35 18 -20 17 -20 -16 -20 -23 0 -52 12 -87 35 -51 35 -67
53 -37 41 9 -3 40 -13 69 -21z m325 -41 c7 -8 2 -11 -15 -11 -27 0 -44 23 -44
59 1 24 3 22 59 -48z m521 52 c0 -12 -169 -99 -193 -99 -15 0 -23 -4 -16 -8 7
-4 -5 -16 -32 -32 -76 -44 -98 -52 -111 -39 -6 6 -10 13 -7 15 2 2 19 15 37
30 19 15 39 24 44 21 6 -4 8 -2 4 4 -6 11 63 72 83 72 6 0 11 4 11 10 0 5 6 7
13 5 6 -3 44 1 82 9 87 17 85 17 85 12z m-6673 -88 c-2 -18 -4 -6 -4 27 0 33
2 48 4 33 2 -15 2 -42 0 -60z m1993 67 c70 -5 89 -10 79 -19 -2 -2 -64 -6
-136 -8 l-133 -4 28 23 c19 17 35 22 57 18 17 -2 64 -7 105 -10z m4256 -41
c-3 -7 -16 -13 -30 -12 -26 2 -25 10 8 46 l21 24 3 -22 c2 -12 1 -28 -2 -36z
m-1479 24 c-3 -8 -6 -5 -6 6 -1 11 2 17 5 13 3 -3 4 -12 1 -19z m-3637 -9 c0
-6 -4 -7 -10 -4 -5 3 -10 11 -10 16 0 6 5 7 10 4 6 -3 10 -11 10 -16z m1677
-1 c-3 -8 -6 -5 -6 6 -1 11 2 17 5 13 3 -3 4 -12 1 -19z m3373 1 c0 -6 -4 -7
-10 -4 -5 3 -10 11 -10 16 0 6 5 7 10 4 6 -3 10 -11 10 -16z m-3852 -13 c24
-2 64 -7 89 -11 25 -3 66 -8 92 -10 25 -3 69 -7 96 -10 56 -7 91 -11 135 -13
l30 -2 0 -85 0 -85 -152 0 c-183 0 -319 16 -771 91 -68 11 -92 28 -69 51 8 8
7 14 -4 22 -26 19 -6 46 35 47 20 1 88 5 151 9 105 7 258 5 368 -4z m4077 -10
c-16 -13 -46 -38 -65 -55 -19 -17 -41 -31 -48 -31 -23 0 -8 35 16 38 12 2 22
7 22 12 0 5 -7 7 -15 4 -10 -4 -15 0 -15 14 0 17 8 22 38 27 20 4 42 8 47 10
6 2 19 4 30 4 17 1 15 -3 -10 -23z m-4692 -10 c3 -8 -1 -17 -10 -20 -20 -8
-27 -1 -20 19 8 19 23 20 30 1z m3051 -364 c10 -51 20 -91 23 -89 2 3 -3 42
-11 87 -9 45 -16 94 -15 109 0 14 9 -23 20 -83 34 -192 119 -400 231 -564 114
-166 304 -335 496 -439 85 -47 91 -58 9 -17 -127 65 -314 206 -393 297 -18 22
-34 36 -34 31 0 -14 146 -154 215 -206 237 -178 519 -278 840 -298 l120 -7
-108 -1 c-233 -4 -486 63 -703 184 -243 137 -452 357 -579 613 -111 224 -170
496 -149 689 l9 77 5 -145 c4 -80 14 -187 24 -238z m-3733 352 c11 -14 10 -18
-6 -30 -16 -12 -17 -16 -6 -23 10 -6 11 -14 3 -27 -7 -12 -6 -23 1 -36 9 -13
8 -21 0 -29 -10 -10 -8 -15 5 -25 11 -8 14 -16 7 -23 -6 -6 -158 -17 -360 -25
-192 -9 -414 -19 -492 -22 l-143 -7 0 131 0 132 489 0 c437 0 490 -2 502 -16z
m5253 1 c-4 -8 -12 -15 -20 -15 -8 0 -14 7 -14 15 0 8 9 15 20 15 13 0 18 -5
14 -15z m-241 -1 c3 -3 3 -12 0 -20 -8 -21 -47 -17 -68 6 -18 20 -17 20 22 20
22 0 42 -3 46 -6z m197 -4 c0 -5 -2 -10 -4 -10 -3 0 -8 5 -11 10 -3 6 -1 10 4
10 6 0 11 -4 11 -10z m-4510 -40 c0 -23 -18 -36 -32 -22 -6 6 -5 17 3 30 15
24 29 20 29 -8z m3027 -107 c-2 -27 -3 -5 -3 47 0 52 1 74 3 48 2 -27 2 -69 0
-95z m-3664 107 c-3 -11 -9 -20 -14 -20 -10 0 -12 24 -2 33 13 13 21 7 16 -13z
m552 10 c3 -5 1 -10 -4 -10 -6 0 -11 5 -11 10 0 6 2 10 4 10 3 0 8 -4 11 -10z
m1196 -97 c-3 -133 -11 -132 -11 2 0 60 3 106 6 102 4 -3 6 -50 5 -104z
m-2854 20 c-2 -16 -4 -3 -4 27 0 30 2 43 4 28 2 -16 2 -40 0 -55z m3153 62
c91 -7 117 -14 124 -32 9 -21 -3 -36 -25 -30 -13 3 -19 -1 -21 -17 -2 -15 -9
-20 -27 -18 -16 1 -22 -2 -18 -12 7 -18 -12 -36 -30 -29 -12 5 -14 1 -8 -16 5
-18 2 -24 -14 -28 -16 -4 -19 -11 -15 -29 6 -22 3 -24 -32 -24 -66 0 -68 5
-65 127 1 59 5 111 8 116 3 4 17 6 31 3 15 -3 56 -8 92 -11z m570 2 c0 -2 -10
-12 -22 -23 l-23 -19 19 23 c18 21 26 27 26 19z m2605 -48 c11 -17 -1 -21 -15
-4 -8 9 -8 15 -2 15 6 0 14 -5 17 -11z m-5220 -20 c9 -14 -3 -59 -15 -59 -6 0
-10 16 -10 35 0 34 12 46 25 24z m4946 1 c12 -7 19 -21 19 -40 l0 -30 -65 2
-65 2 42 38 c50 43 44 41 69 28z m259 0 c0 -5 -4 -10 -10 -10 -5 0 -10 5 -10
10 0 6 5 10 10 10 6 0 10 -4 10 -10z m90 -31 c27 -17 50 -33 50 -35 0 -2 -14
-4 -31 -4 -21 0 -28 4 -23 13 4 6 3 9 -1 4 -5 -4 -22 5 -37 20 -18 17 -27 21
-23 11 4 -9 13 -19 21 -22 8 -3 14 -12 14 -21 0 -8 6 -15 13 -15 6 0 25 -13
40 -30 16 -16 25 -30 22 -30 -4 0 -43 10 -86 22 -89 24 -106 47 -36 50 l42 1
-42 4 c-50 5 -55 21 -15 45 35 23 34 23 92 -13z m-440 1 c-14 -11 -42 -34 -64
-52 -32 -26 -146 -67 -146 -52 0 10 107 58 125 55 11 -2 17 1 12 5 -4 4 12 20
35 35 50 32 75 38 38 9z m-2437 -13 l28 -12 -31 -42 c-18 -24 -37 -43 -44 -43
-13 0 -48 95 -38 104 9 10 55 6 85 -7z m-3516 -59 c-2 -13 -4 -3 -4 22 0 25 2
35 4 23 2 -13 2 -33 0 -45z m1115 20 c-6 -6 -16 -7 -22 -3 -9 6 -9 9 1 16 17
10 34 0 21 -13z m751 -42 c44 -26 81 -45 84 -42 3 2 -12 14 -34 25 -45 24 -36
28 12 5 39 -18 70 -15 70 6 0 19 3 19 260 -37 116 -25 232 -50 258 -56 37 -8
51 -16 63 -38 19 -37 43 -49 98 -49 25 0 48 -4 51 -10 9 -15 -13 -13 -148 15
-67 13 -227 45 -356 70 -129 25 -240 50 -247 56 -7 6 -18 8 -23 4 -6 -3 -51 2
-101 12 -64 12 -94 22 -101 35 -7 13 -4 20 11 28 11 6 17 16 14 22 -8 13 -13
15 89 -46z m1441 22 c7 -18 16 -45 20 -60 l6 -28 -75 0 -76 0 18 31 c17 29 77
89 89 89 3 0 11 -15 18 -32z m2951 22 c-3 -5 -11 -10 -16 -10 -6 0 -7 5 -4 10
3 6 11 10 16 10 6 0 7 -4 4 -10z m-3489 -11 c13 -22 -14 -24 -106 -8 l-95 17
97 1 c60 1 99 -3 104 -10z m3279 -9 c-2 -8 -7 -28 -10 -45 -4 -24 -3 -26 4
-10 8 16 9 11 9 -23 -1 -24 -5 -45 -10 -48 -13 -8 -9 -21 7 -21 8 0 15 6 15
12 0 7 9 20 20 30 31 28 23 1 -10 -35 -16 -18 -30 -36 -30 -41 0 -11 -50 -89
-57 -89 -9 0 9 65 24 89 14 22 27 101 17 101 -2 0 -9 -20 -15 -45 -10 -39 -35
-67 -242 -267 -127 -123 -242 -235 -256 -249 -14 -14 -79 -77 -144 -139 l-117
-114 -46 45 c-25 24 -64 66 -87 93 l-41 49 49 44 c28 25 79 70 115 101 36 32
103 91 150 132 47 41 115 100 150 130 35 30 104 91 153 135 108 97 168 144
183 145 7 0 14 9 17 20 5 19 12 20 81 18 62 -2 75 -6 71 -18z m89 -2 c15 -21
14 -24 -26 -65 -23 -23 -44 -41 -46 -38 -2 2 -1 31 3 64 6 55 9 61 30 61 13 0
31 -10 39 -22z m-4231 5 c-7 -2 -19 -2 -25 0 -7 3 -2 5 12 5 14 0 19 -2 13 -5z
m4335 -2 c8 -5 12 -23 10 -49 l-3 -41 -33 39 c-18 22 -30 45 -27 50 7 12 35
13 53 1z m-5228 -5 c0 -2 -23 -18 -50 -36 -28 -18 -48 -35 -46 -38 3 -3 30 12
60 33 57 39 97 43 78 8 -10 -18 -128 -56 -144 -47 -5 3 -14 1 -21 -5 -9 -7
-760 -201 -780 -201 -9 0 -57 186 -57 222 0 10 11 19 28 22 15 3 191 12 392
21 375 16 465 20 513 23 15 1 27 0 27 -2z m682 -11 c0 -5 -5 -11 -11 -13 -6
-2 -11 4 -11 13 0 9 5 15 11 13 6 -2 11 -8 11 -13z m4694 -25 l80 -21 364
-365 365 -365 -67 -64 c-117 -112 -332 -256 -357 -241 -5 3 -26 36 -47 74 -20
37 -47 85 -60 107 -12 22 -57 101 -99 175 -42 74 -100 176 -127 225 -28 50
-58 98 -66 108 -8 9 -12 17 -7 17 4 0 2 6 -5 14 -10 14 -40 133 -40 164 0 13
88 -85 305 -338 72 -84 137 -160 146 -169 38 -39 166 -188 182 -210 9 -14 19
-22 22 -19 3 3 -11 26 -32 50 -42 49 -128 149 -156 182 -10 11 -39 46 -65 76
-26 30 -83 95 -127 145 -44 49 -121 137 -170 195 -50 58 -96 111 -102 118 -7
7 -15 23 -18 35 -29 130 -30 141 -12 134 8 -3 50 -15 93 -27z m-4831 10 c-3
-5 -11 -10 -16 -10 -6 0 -7 5 -4 10 3 6 11 10 16 10 6 0 7 -4 4 -10z m4695
-119 l0 -36 -26 45 c-14 25 -35 63 -45 85 l-20 40 46 -49 c36 -40 45 -57 45
-85z m-455 91 c-17 -15 -64 -56 -105 -92 -40 -36 -78 -70 -84 -75 -23 -22
-255 -225 -370 -324 -67 -57 -131 -113 -143 -124 l-22 -20 -20 24 c-26 31
-111 174 -111 186 0 4 17 17 38 28 20 11 87 47 147 81 61 33 139 77 175 96 36
20 139 78 230 129 103 58 186 97 220 105 77 17 79 17 45 -14z m418 -83 l37
-66 0 -245 c0 -135 -3 -367 -7 -516 l-6 -272 -111 0 c-61 0 -118 5 -126 10 -9
5 -14 22 -12 42 1 18 9 143 17 278 43 703 44 710 77 762 16 27 26 53 22 59 -4
7 -3 9 3 6 6 -4 18 5 28 19 20 30 18 32 78 -77z m71 34 c2 -28 6 -55 9 -60 4
-5 9 -23 11 -39 3 -16 10 -44 16 -63 15 -52 6 -48 -29 12 -29 51 -43 126 -21
112 6 -3 10 -2 10 4 0 5 -4 13 -10 16 -5 3 -10 25 -10 48 0 58 18 35 24 -30z
m-5135 48 c8 -5 9 -11 3 -15 -5 -3 -15 1 -22 9 -14 16 -3 20 19 6z m511 -6 c0
-8 -13 -29 -30 -47 l-29 -33 -1 28 c0 20 5 27 20 27 13 0 20 7 20 20 0 11 5
20 10 20 6 0 10 -7 10 -15z m195 -86 c61 -55 171 -155 245 -222 224 -201 340
-310 337 -314 -2 -2 -26 -5 -53 -8 -27 -2 -71 -6 -99 -9 -27 -3 -75 -8 -105
-11 l-56 -4 -121 122 -122 122 -5 70 c-6 100 -27 205 -40 205 -7 0 -19 9 -28
20 -10 11 -30 22 -45 25 -48 11 -73 24 -73 40 0 9 9 15 21 15 15 0 19 4 15 16
-6 16 0 34 12 34 4 0 57 -46 117 -101z m-285 87 c0 -3 -4 -8 -10 -11 -5 -3
-10 -1 -10 4 0 6 5 11 10 11 6 0 10 -2 10 -4z m335 -22 c50 -9 95 -21 102 -26
7 -5 16 -7 22 -4 5 3 31 1 58 -4 78 -18 607 -121 620 -122 19 -2 3 -55 -56
-190 l-20 -48 -30 18 c-65 39 -138 84 -256 158 -154 97 -307 185 -311 181 -5
-4 77 -56 241 -153 44 -26 98 -60 120 -75 22 -14 56 -35 75 -45 79 -44 151
-98 146 -111 -12 -30 -108 -172 -120 -176 -20 -8 -63 25 -226 173 -9 8 -36 32
-60 54 -25 21 -74 66 -110 100 -36 34 -99 91 -140 127 -116 100 -188 171 -165
165 11 -2 61 -13 110 -22z m-1194 -326 l-344 -342 -39 45 c-56 65 -114 162
-100 167 7 2 18 9 25 15 7 7 44 33 82 58 39 26 174 115 300 199 201 135 240
156 310 176 44 12 87 23 95 23 8 0 -140 -153 -329 -341z m391 299 c14 -4 19
-11 15 -21 -5 -11 0 -16 14 -16 13 0 23 -8 26 -20 3 -12 12 -19 22 -18 12 2
16 -5 16 -29 0 -26 -15 -48 -81 -120 -45 -48 -158 -171 -251 -273 -94 -102
-195 -212 -226 -245 -31 -33 -57 -65 -57 -71 0 -27 -39 -4 -116 69 -46 43 -84
83 -84 88 0 4 156 163 348 353 252 250 348 340 350 326 2 -10 12 -20 24 -23z
m108 -7 c0 -21 -15 -27 -25 -10 -7 12 2 30 16 30 5 0 9 -9 9 -20z m2480 6 c0
-2 3 -11 6 -20 5 -12 0 -16 -17 -16 -13 0 -30 4 -38 9 -11 7 -10 11 5 20 19
10 44 15 44 7z m-2861 -10 c-6 -6 -508 -338 -563 -373 -28 -18 -53 -30 -58
-27 -17 11 -106 210 -96 219 1 1 158 42 348 90 190 48 347 89 349 91 2 2 9 4
14 4 6 0 8 -2 6 -4z m428 -38 c-3 -8 -6 -5 -6 6 -1 11 2 17 5 13 3 -3 4 -12 1
-19z m39 -25 c-10 -10 -19 5 -10 18 6 11 8 11 12 0 2 -7 1 -15 -2 -18z m1489
-98 c-14 -48 -39 -120 -56 -159 -34 -80 -119 -226 -131 -226 -5 0 -4 9 2 19
14 28 12 35 -6 20 -10 -8 -8 0 6 24 23 39 39 52 20 16 -7 -11 -10 -23 -7 -25
14 -14 126 227 157 337 19 70 29 93 36 86 2 -2 -7 -43 -21 -92z m3191 43 c-2
-18 -7 -42 -12 -53 -7 -19 -448 -685 -484 -732 l-17 -22 -64 44 c-35 24 -80
57 -99 73 l-35 31 175 172 c215 210 534 519 537 519 1 0 1 -15 -1 -32z m-3209
0 c-3 -8 -6 -5 -6 6 -1 11 2 17 5 13 3 -3 4 -12 1 -19z m282 6 c8 -2 11 -7 8
-11 -4 -3 1 -12 11 -19 14 -11 15 -16 4 -33 -10 -18 -10 -21 2 -21 21 0 30
-18 17 -34 -9 -11 -7 -15 10 -19 15 -4 20 -12 17 -29 -2 -17 1 -22 15 -20 16
3 21 -8 18 -35 -1 -7 7 -13 19 -13 13 0 20 -7 20 -20 0 -15 6 -19 22 -17 17 1
24 -4 26 -20 3 -20 6 -21 23 -12 17 9 21 7 26 -10 6 -24 14 -26 30 -10 12 12
33 5 33 -11 0 -10 -127 -33 -140 -25 -5 3 -12 0 -15 -6 -4 -5 -12 -8 -19 -6
-7 3 -50 -1 -96 -9 -46 -7 -86 -11 -89 -9 -3 1 -42 -3 -85 -11 -44 -7 -81 -12
-83 -10 -2 1 15 42 37 89 32 69 85 219 116 325 3 12 27 10 73 -4z m2976 -209
c-40 -599 -54 -785 -60 -785 -2 0 -34 7 -72 15 -108 25 -163 45 -163 61 0 8
13 60 30 117 16 56 68 238 115 405 72 253 92 312 122 357 20 30 38 53 40 52 1
-2 -4 -102 -12 -222z m-1795 200 c15 -18 5 -35 -20 -35 -22 0 -34 15 -26 35 7
19 30 19 46 0z m-958 -10 c66 -10 75 -23 60 -92 -11 -55 -34 -93 -57 -93 -32
0 -115 114 -115 158 0 25 21 44 45 38 11 -2 41 -8 67 -11z m3040 -70 c28 -56
43 -111 74 -269 21 -110 40 -194 42 -187 2 6 -13 90 -33 187 -20 97 -35 178
-33 180 3 2 23 -31 47 -74 23 -42 66 -120 96 -172 111 -193 245 -438 245 -447
0 -13 -149 -71 -203 -79 -23 -4 -46 -10 -52 -14 -12 -9 -99 -27 -177 -36 l-58
-6 0 503 c0 292 4 499 9 494 5 -6 24 -41 43 -80z m-5112 -17 c-7 -40 -18 -86
-26 -102 -7 -16 -11 -32 -9 -36 5 -8 -104 -571 -126 -657 -7 -24 -14 -43 -18
-43 -10 0 -154 55 -186 71 -16 9 -29 20 -28 25 1 5 -11 9 -26 10 -29 1 -201
107 -201 124 0 6 28 41 63 78 34 37 123 135 197 217 244 270 362 396 367 391
3 -3 0 -38 -7 -78z m60 62 c12 -7 9 -17 -18 -55 -18 -26 -31 -52 -29 -58 2 -6
20 17 41 52 21 34 41 60 44 56 7 -7 3 -892 -5 -923 -5 -22 -9 -23 -57 -17
-102 13 -186 36 -186 51 0 30 138 723 147 737 3 5 7 26 9 46 2 20 5 45 8 56 2
11 5 30 5 43 1 23 16 28 41 12z m230 -15 c25 -13 29 -21 34 -77 8 -82 36 -703
36 -790 l0 -68 -125 0 -125 0 0 328 c0 180 3 391 7 469 l6 142 51 4 c28 2 59
4 69 5 10 1 31 -5 47 -13z m1250 -32 c-11 -17 -11 -17 -6 0 3 10 6 24 7 30 0
9 2 9 5 0 3 -7 0 -20 -6 -30z m946 16 c11 -18 -17 -28 -43 -16 -12 5 -23 14
-23 19 0 12 58 10 66 -3z m-2075 -72 c42 -60 51 -84 82 -215 20 -81 56 -233
81 -338 25 -105 46 -200 46 -212 0 -22 -19 -31 -130 -57 -108 -25 -107 -25
-114 53 -3 37 -13 213 -21 392 -8 179 -17 353 -20 388 -4 56 -2 63 13 60 9 -2
38 -34 63 -71z m26 24 c7 -25 11 -46 9 -48 -4 -4 -56 81 -56 92 0 4 8 5 17 3
10 -2 22 -20 30 -47z m1882 17 c53 -32 81 -59 81 -80 0 -29 -92 -68 -159 -68
l-54 0 5 43 c6 50 51 127 74 127 9 0 33 -10 53 -22z m-1841 -10 c10 -10 15
-10 22 1 7 12 12 12 34 -2 24 -16 25 -21 20 -76 -3 -32 -8 -71 -12 -86 -7 -26
-8 -26 -40 24 -56 86 -73 188 -24 139z m1036 -47 c-9 -23 -18 -40 -20 -38 -2
2 4 22 13 45 9 23 18 40 20 38 2 -2 -4 -22 -13 -45z m-884 13 c0 -8 -4 -12
-10 -9 -5 3 -10 10 -10 16 0 5 5 9 10 9 6 0 10 -7 10 -16z m4005 -345 c-115
-402 -124 -429 -137 -429 -18 0 -202 90 -209 102 -4 6 -2 17 4 24 7 7 107 156
222 331 116 176 211 316 213 312 1 -3 -40 -156 -93 -340z m-3169 222 c-15 -28
-28 -51 -31 -51 -3 0 7 25 22 55 15 30 29 53 31 51 2 -2 -8 -27 -22 -55z
m-938 -52 c5 -13 6 -44 3 -69 l-7 -45 -22 87 c-12 48 -22 90 -22 94 0 12 39
-43 48 -67z m309 -84 c40 -38 71 -71 69 -73 -4 -3 -77 -12 -136 -15 -23 -2
-25 1 -22 33 2 19 9 38 15 43 9 5 7 11 -6 18 -11 7 -16 17 -12 29 4 12 -1 19
-16 23 -15 4 -20 11 -15 22 4 12 0 15 -17 13 -25 -3 -27 0 -27 39 0 27 0 27
48 -18 26 -25 79 -76 119 -114z m5333 -49 c0 -3 -4 -8 -10 -11 -5 -3 -10 -1
-10 4 0 6 5 11 10 11 6 0 10 -2 10 -4z m-5505 -16 c3 -5 1 -10 -4 -10 -6 0
-11 5 -11 10 0 6 2 10 4 10 3 0 8 -4 11 -10z m5465 6 c0 -2 -8 -10 -17 -17
-16 -13 -17 -12 -4 4 13 16 21 21 21 13z m-7079 -23 c13 -16 12 -17 -3 -4 -10
7 -18 15 -18 17 0 8 8 3 21 -13z m2271 -55 c-114 -144 -297 -290 -473 -378
-103 -52 -293 -114 -408 -134 -99 -17 -335 -21 -406 -7 -23 5 12 6 85 3 467
-18 904 178 1200 535 61 74 63 57 2 -19z m-61 44 c-12 -22 -148 -157 -157
-156 -11 1 -144 138 -139 142 2 3 21 6 42 8 108 10 157 15 159 17 1 1 25 3 53
4 46 2 50 0 42 -15z m4868 -14 c-55 -77 -339 -341 -339 -315 0 4 33 32 73 64
80 64 182 164 240 236 43 53 60 63 26 15z m-4849 -31 l-34 -32 30 36 c16 20
31 34 33 32 3 -2 -10 -18 -29 -36z m4820 40 c0 -2 -10 -12 -22 -23 l-23 -19
19 23 c18 21 26 27 26 19z m-5084 -88 l76 -77 -56 -44 c-31 -25 -92 -66 -135
-91 -84 -50 -248 -123 -256 -115 -7 6 -95 362 -91 365 1 2 26 7 56 13 40 8 57
7 68 -2 8 -7 51 -68 95 -137 45 -68 83 -119 84 -114 2 6 -29 59 -69 117 -40
59 -77 113 -83 121 -14 21 -6 24 80 30 44 3 81 8 84 10 2 3 19 4 38 2 27 -2
48 -17 109 -78z m-1871 -9 c49 -54 49 -54 6 -15 -23 22 -47 49 -53 60 -6 11
-9 18 -6 15 2 -3 26 -30 53 -60z m0 40 c10 -11 16 -20 13 -20 -3 0 -13 9 -23
20 -10 11 -16 20 -13 20 3 0 13 -9 23 -20z m2035 -91 c-41 -39 -88 -79 -105
-91 -16 -11 -5 2 25 28 30 27 73 68 97 92 23 23 46 42 50 42 5 -1 -26 -33 -67
-71z m4830 48 c0 -1 -26 -27 -57 -57 l-58 -55 55 58 c50 53 60 62 60 54z
m-6715 -141 c30 -28 29 -28 -11 2 -22 17 -47 39 -55 49 -11 14 -9 14 11 -2 13
-11 38 -33 55 -49z m6595 31 c0 -2 -10 -12 -22 -23 l-23 -19 19 23 c18 21 26
27 26 19z m-50 -41 c0 -2 -8 -10 -17 -17 -16 -13 -17 -12 -4 4 13 16 21 21 21
13z m-4822 -29 c-29 -24 -98 -66 -86 -52 10 11 102 74 108 74 3 0 -7 -10 -22
-22z m-1667 -4 c13 -16 12 -17 -3 -4 -10 7 -18 15 -18 17 0 8 8 3 21 -13z
m6444 -3 c-3 -5 -16 -15 -28 -21 -19 -9 -19 -8 3 10 28 23 34 26 25 11z
m-6370 -48 c-3 -3 -11 0 -18 7 -9 10 -8 11 6 5 10 -3 15 -9 12 -12z m6350 -2
c-3 -5 -13 -10 -21 -10 -8 0 -14 -5 -14 -12 0 -6 -3 -8 -7 -4 -5 4 1 14 11 22
23 16 40 19 31 4z m-4855 -5 c0 -2 -22 -16 -50 -30 -27 -14 -50 -23 -50 -20 0
2 21 16 48 29 53 28 52 28 52 21z m4770 -10 c0 -2 -10 -9 -22 -15 -22 -11 -22
-10 -4 4 21 17 26 19 26 11z m-5 -35 c-3 -5 -16 -15 -28 -21 -19 -9 -19 -8 3
10 28 23 34 26 25 11z m-4905 -30 c-19 -11 -39 -19 -45 -19 -5 0 6 8 25 19 19
11 40 19 45 19 6 0 -6 -8 -25 -19z m4840 -5 c-7 -9 -15 -13 -19 -10 -3 3 1 10
9 15 21 14 24 12 10 -5z m-1180 -15 c8 -5 11 -10 5 -10 -5 0 -17 5 -25 10 -8
5 -10 10 -5 10 6 0 17 -5 25 -10z m80 -32 c10 -6 7 -7 -10 -2 -14 3 -32 11
-40 16 -10 6 -7 7 10 2 14 -3 32 -11 40 -16z m-3883 -4 c-3 -3 -12 -4 -19 -1
-8 3 -5 6 6 6 11 1 17 -2 13 -5z m3930 -10 c-3 -3 -12 -4 -19 -1 -8 3 -5 6 6
6 11 1 17 -2 13 -5z m-4000 -10 c-3 -3 -12 -4 -19 -1 -8 3 -5 6 6 6 11 1 17
-2 13 -5z m4883 2 c0 -2 -7 -7 -16 -10 -8 -3 -12 -2 -9 4 6 10 25 14 25 6z
m-4923 -12 c-3 -3 -12 -4 -19 -1 -8 3 -5 6 6 6 11 1 17 -2 13 -5z m-50 -10
c-3 -3 -12 -4 -19 -1 -8 3 -5 6 6 6 11 1 17 -2 13 -5z m4196 -1 c-7 -2 -19 -2
-25 0 -7 3 -2 5 12 5 14 0 19 -2 13 -5z m707 -3 c-8 -5 -22 -9 -30 -9 -10 0
-8 3 5 9 27 12 43 12 25 0z m-4957 -7 c-7 -2 -21 -2 -30 0 -10 3 -4 5 12 5 17
0 24 -2 18 -5z m4294 1 c-3 -3 -12 -4 -19 -1 -8 3 -5 6 6 6 11 1 17 -2 13 -5z
m-4374 -11 c-13 -2 -33 -2 -45 0 -13 2 -3 4 22 4 25 0 35 -2 23 -4z m4450 0
c-7 -2 -21 -2 -30 0 -10 3 -4 5 12 5 17 0 24 -2 18 -5z m64 -9 c-3 -3 -12 -4
-19 -1 -8 3 -5 6 6 6 11 1 17 -2 13 -5z"/>
<path d="M1350 4760 c-27 -6 -29 -8 -10 -8 14 -1 43 3 65 7 33 7 35 9 10 9
-16 -1 -46 -4 -65 -8z"/>
<path d="M1288 4743 c7 -3 16 -2 19 1 4 3 -2 6 -13 5 -11 0 -14 -3 -6 -6z"/>
<path d="M1236 4731 c-4 -5 3 -7 14 -4 23 6 26 13 6 13 -8 0 -17 -4 -20 -9z"/>
<path d="M1190 4720 c-8 -5 -10 -10 -5 -10 6 0 17 5 25 10 8 5 11 10 5 10 -5
0 -17 -5 -25 -10z"/>
<path d="M1130 4700 c-18 -12 -2 -12 25 0 13 6 15 9 5 9 -8 0 -22 -4 -30 -9z"/>
<path d="M1035 4660 c-3 -6 1 -7 9 -4 18 7 21 14 7 14 -6 0 -13 -4 -16 -10z"/>
<path d="M914 4604 c-18 -14 -18 -15 4 -4 12 6 22 13 22 15 0 8 -5 6 -26 -11z"/>
<path d="M803 4534 c-24 -14 -43 -27 -43 -30 0 -6 67 33 85 48 17 15 1 8 -42
-18z"/>
<path d="M422 4158 c-7 -7 -12 -16 -12 -21 0 -5 -9 -20 -20 -34 -11 -14 -20
-31 -20 -37 0 -6 16 13 36 42 34 51 42 76 16 50z"/>
<path d="M6835 4700 c27 -12 43 -12 25 0 -8 5 -22 9 -30 9 -10 0 -8 -3 5 -9z"/>
<path d="M6967 4649 c7 -7 15 -10 18 -7 3 3 -2 9 -12 12 -14 6 -15 5 -6 -5z"/>
<path d="M7080 4596 c0 -3 9 -10 20 -16 11 -6 20 -8 20 -6 0 3 -9 10 -20 16
-11 6 -20 8 -20 6z"/>
<path d="M7640 4021 c0 -6 4 -13 10 -16 6 -3 7 1 4 9 -7 18 -14 21 -14 7z"/>
<path d="M7671 3965 c0 -5 6 -21 14 -35 8 -14 14 -20 14 -15 0 6 -6 21 -14 35
-8 14 -14 21 -14 15z"/>
<path d="M7706 3877 c3 -10 9 -15 12 -12 3 3 0 11 -7 18 -10 9 -11 8 -5 -6z"/>
<path d="M7730 3815 c0 -5 5 -17 10 -25 5 -8 10 -10 10 -5 0 6 -5 17 -10 25
-5 8 -10 11 -10 5z"/>
<path d="M7751 3754 c0 -11 3 -14 6 -6 3 7 2 16 -1 19 -3 4 -6 -2 -5 -13z"/>
<path d="M7761 3714 c0 -11 3 -14 6 -6 3 7 2 16 -1 19 -3 4 -6 -2 -5 -13z"/>
<path d="M7771 3674 c0 -11 3 -14 6 -6 3 7 2 16 -1 19 -3 4 -6 -2 -5 -13z"/>
<path d="M7787 3595 c3 -27 7 -52 9 -54 7 -8 2 54 -6 79 -6 17 -7 9 -3 -25z"/>
<path d="M1420 3834 c0 -13 42 -75 47 -70 3 3 -5 21 -17 40 -21 34 -30 43 -30
30z"/>
<path d="M6556 4649 c-12 -73 -47 -520 -43 -551 3 -25 4 -21 6 17 1 28 12 165
25 305 22 234 26 313 12 229z"/>
<path d="M6032 4640 c0 -8 4 -26 8 -40 6 -20 8 -21 8 -5 0 11 -3 29 -8 40 -5
12 -8 14 -8 5z"/>
<path d="M6811 4614 c0 -11 3 -14 6 -6 3 7 2 16 -1 19 -3 4 -6 -2 -5 -13z"/>
<path d="M6751 4394 c-29 -108 -51 -197 -49 -200 2 -2 28 84 57 192 29 107 51
197 49 199 -2 3 -28 -83 -57 -191z"/>
<path d="M6052 4550 c0 -14 4 -38 8 -55 7 -27 8 -27 8 -5 0 14 -4 39 -8 55 -7
27 -8 27 -8 5z"/>
<path d="M6070 4449 c0 -8 20 -120 45 -249 25 -129 45 -239 45 -244 0 -5 3 -7
6 -4 3 3 -9 79 -26 169 -17 90 -38 202 -46 249 -15 80 -24 111 -24 79z"/>
<path d="M5918 4335 c11 -22 74 -134 141 -250 67 -115 121 -217 121 -226 0 -9
6 -19 13 -22 7 -3 28 -32 46 -66 18 -34 34 -61 37 -61 11 0 0 23 -46 100 -27
46 -50 94 -50 107 0 12 -5 22 -11 21 -6 -2 -65 92 -131 207 -111 195 -167 284
-120 190z"/>
<path d="M6666 4079 c-15 -56 -25 -103 -23 -105 2 -2 16 41 32 96 15 56 26
103 23 105 -3 3 -17 -40 -32 -96z"/>
<path d="M4855 4514 c-25 -20 -28 -26 -15 -34 23 -15 28 -12 45 19 20 39 7 45
-30 15z"/>
<path d="M7340 3645 c-30 -7 -46 -13 -35 -13 11 -1 47 5 80 12 33 8 49 14 35
14 -14 0 -50 -6 -80 -13z"/>
<path d="M7000 3230 c41 -5 122 -11 180 -14 94 -4 97 -4 30 4 -41 5 -122 11
-180 14 -94 4 -97 4 -30 -4z"/>
<path d="M7360 3200 c70 -8 196 -12 189 -6 -2 2 -60 6 -129 9 -85 3 -104 2
-60 -3z"/>
<path d="M7583 3183 c15 -2 39 -2 55 0 15 2 2 4 -28 4 -30 0 -43 -2 -27 -4z"/>
<path d="M7361 2996 c8 -8 232 -67 236 -62 3 3 -15 10 -38 16 -24 6 -74 20
-110 31 -62 18 -98 24 -88 15z"/>
<path d="M7618 2923 c7 -3 16 -2 19 1 4 3 -2 6 -13 5 -11 0 -14 -3 -6 -6z"/>
<path d="M5078 3543 c18 -2 45 -2 60 0 15 2 0 4 -33 4 -33 0 -45 -2 -27 -4z"/>
<path d="M5198 3533 c17 -2 47 -2 65 0 17 2 3 4 -33 4 -36 0 -50 -2 -32 -4z"/>
<path d="M5380 3520 c82 -8 226 -12 219 -6 -2 2 -69 6 -149 9 -96 3 -120 2
-70 -3z"/>
<path d="M5675 3500 c39 -4 102 -7 140 -7 l70 0 -85 8 c-47 4 -110 7 -140 6
-54 0 -54 0 15 -7z"/>
<path d="M5918 3483 c17 -2 47 -2 65 0 17 2 3 4 -33 4 -36 0 -50 -2 -32 -4z"/>
<path d="M5058 3283 c12 -2 32 -2 45 0 12 2 2 4 -23 4 -25 0 -35 -2 -22 -4z"/>
<path d="M5011 2963 c-1 -16 52 -158 81 -218 33 -68 110 -197 115 -192 2 2
-14 33 -35 68 -58 94 -90 162 -128 263 -18 50 -33 86 -33 79z"/>
<path d="M5220 2534 c0 -6 19 -31 41 -55 36 -38 37 -29 1 11 -7 8 -19 24 -27
35 -8 11 -15 15 -15 9z"/>
<path d="M6163 3243 c9 -2 23 -2 30 0 6 3 -1 5 -18 5 -16 0 -22 -2 -12 -5z"/>
<path d="M6118 3233 c7 -3 16 -2 19 1 4 3 -2 6 -13 5 -11 0 -14 -3 -6 -6z"/>
<path d="M6640 2432 c0 -6 16 -89 35 -184 19 -95 35 -176 35 -180 0 -5 5 -8
11 -8 5 0 8 3 6 8 -3 4 -21 88 -42 187 -33 162 -45 210 -45 177z"/>
<path d="M1325 2698 c-20 -35 -52 -88 -71 -118 -30 -49 -102 -167 -129 -212
-5 -10 -33 -56 -62 -103 -29 -47 -49 -85 -45 -85 4 0 38 51 76 113 38 61 84
135 101 162 82 129 177 296 172 301 -3 3 -22 -23 -42 -58z"/>
</g>
</svg>
